<?xml version="1.0" encoding="utf-8"?><!-- Uploaded to: SVG Repo, www.svgrepo.com, Generator: SVG Repo Mixer Tools -->
<svg width="800px" height="800px" viewBox="0 0 24 24" fill="none" xmlns="http://www.w3.org/2000/svg">
<path fill-rule="evenodd" clip-rule="evenodd" d="M15 6.75C15 5.50736 16.0074 4.5 17.25 4.5C18.4926 4.5 19.5 5.50736 19.5 6.75C19.5 7.99264 18.4926 9 17.25 9C16.0074 9 15 7.99264 15 6.75ZM17.25 3C15.1789 3 13.5 4.67893 13.5 6.75C13.5 7.00234 13.5249 7.24885 13.5724 7.48722L9.77578 9.78436C9.09337 8.85401 7.99222 8.25 6.75 8.25C4.67893 8.25 3 9.92893 3 12C3 14.0711 4.67893 15.75 6.75 15.75C8.10023 15.75 9.28379 15.0364 9.9441 13.9657L13.5866 16.4451C13.5299 16.7044 13.5 16.9737 13.5 17.25C13.5 19.3211 15.1789 21 17.25 21C19.3211 21 21 19.3211 21 17.25C21 15.1789 19.3211 13.5 17.25 13.5C15.9988 13.5 14.8907 14.1128 14.2095 15.0546L10.4661 12.5065C10.4884 12.3409 10.5 12.1718 10.5 12C10.5 11.7101 10.4671 11.4279 10.4049 11.1569L14.1647 8.88209C14.8415 9.85967 15.971 10.5 17.25 10.5C19.3211 10.5 21 8.82107 21 6.75C21 4.67893 19.3211 3 17.25 3ZM15 17.25C15 16.0074 16.0074 15 17.25 15C18.4926 15 19.5 16.0074 19.5 17.25C19.5 18.4926 18.4926 19.5 17.25 19.5C16.0074 19.5 15 18.4926 15 17.25ZM4.5 12C4.5 10.7574 5.50736 9.75 6.75 9.75C7.99264 9.75 9 10.7574 9 12C9 13.2426 7.99264 14.25 6.75 14.25C5.50736 14.25 4.5 13.2426 4.5 12Z" fill="#080341"/>
</svg>