<?xml version="1.0" encoding="iso-8859-1"?>
<!-- Uploaded to: SVG Repo, www.svgrepo.com, Generator: SVG Repo Mixer Tools -->
<svg height="800px" width="800px" version="1.1" id="Layer_1" xmlns="http://www.w3.org/2000/svg" xmlns:xlink="http://www.w3.org/1999/xlink" 
	 viewBox="0 0 504.8 504.8" xml:space="preserve">
<path style="fill:#E8E3E3;" d="M409.4,500.4h-370C22.2,500.4,5,486.8,5,469.6v-29.2h373.2L409.4,500.4z"/>
<path style="fill:#F4EFEF;" d="M440.2,468.8c0,17.2-14.4,32-31.6,32S377,487.2,377,469.6v-29.2H65v-404c0-17.6,20-32,37.6-32h370
	l-31.6,32v432"/>
<path style="fill:#E8E3E3;" d="M440.6,36.4c0-17.6,12.8-31.6,30-31.6s30,14,30,31.6v28h-60V36.4z"/>
<path d="M388.6,130.4h-280c-2.4,0-4-1.6-4-4s1.6-4,4-4h280c2.4,0,4,1.6,4,4S391,130.4,388.6,130.4z"/>
<path d="M152.6,170.4h-44c-2.4,0-4-1.6-4-4s1.6-4,4-4h44c2.4,0,4,1.6,4,4S155,170.4,152.6,170.4z"/>
<path d="M388.6,170.4h-200c-2.4,0-4-1.6-4-4s1.6-4,4-4h200c2.4,0,4,1.6,4,4S391,170.4,388.6,170.4z"/>
<path d="M388.6,210.4h-44c-2.4,0-4-1.6-4-4s1.6-4,4-4h44c2.4,0,4,1.6,4,4S391,210.4,388.6,210.4z"/>
<path d="M308.6,210.4h-200c-2.4,0-4-1.6-4-4s1.6-4,4-4h200c2.4,0,4,1.6,4,4S311,210.4,308.6,210.4z"/>
<path d="M388.6,90.4h-44c-2.4,0-4-1.6-4-4s1.6-4,4-4h44c2.4,0,4,1.6,4,4S391,90.4,388.6,90.4z"/>
<path d="M308.6,90.4h-200c-2.4,0-4-1.6-4-4s1.6-4,4-4h200c2.4,0,4,1.6,4,4S311,90.4,308.6,90.4z"/>
<path d="M388.6,250.4h-280c-2.4,0-4-1.6-4-4s1.6-4,4-4h280c2.4,0,4,1.6,4,4S391,250.4,388.6,250.4z"/>
<path d="M388.6,370.4h-280c-2.4,0-4-1.6-4-4s1.6-4,4-4h280c2.4,0,4,1.6,4,4S391,370.4,388.6,370.4z"/>
<path d="M152.6,290.4h-44c-2.4,0-4-1.6-4-4s1.6-4,4-4h44c2.4,0,4,1.6,4,4S155,290.4,152.6,290.4z"/>
<path d="M388.6,290.4h-200c-2.4,0-4-1.6-4-4s1.6-4,4-4h200c2.4,0,4,1.6,4,4S391,290.4,388.6,290.4z"/>
<path d="M388.6,330.4h-44c-2.4,0-4-1.6-4-4s1.6-4,4-4h44c2.4,0,4,1.6,4,4S391,330.4,388.6,330.4z"/>
<path d="M308.6,330.4h-200c-2.4,0-4-1.6-4-4s1.6-4,4-4h200c2.4,0,4,1.6,4,4S311,330.4,308.6,330.4z"/>
<path d="M152.6,410.4h-44c-2.4,0-4-1.6-4-4s1.6-4,4-4h44c2.4,0,4,1.6,4,4S155,410.4,152.6,410.4z"/>
<path d="M388.6,410.4h-200c-2.4,0-4-1.6-4-4s1.6-4,4-4h200c2.4,0,4,1.6,4,4S391,410.4,388.6,410.4z"/>
<path d="M499,70.4h-56c-2.4,0-4-1.6-4-4s1.6-4,4-4h56c2.4,0,4,1.6,4,4S501,70.4,499,70.4z"/>
<path d="M64.6,446c-2.4,0-4-1.6-4-4V36c0-19.2,18-36,38.4-36h371.6c2.4,0,4,1.6,4,4s-1.6,4-4,4H99C83,8,68.6,21.2,68.6,36v406
	C68.6,444.4,67,446,64.6,446z"/>
<path d="M411,504.8c-3.6,0-7.2-0.4-10.4-1.2c-0.8,0.4-1.2,0.8-2,0.8H37c-21.2,0-36.4-13.6-36.4-32.4v-27.6c0-2.4,1.6-4,4-4h372
	c2.4,0,4,1.6,4,4V472c0,15.6,15.6,24.8,30.4,24.8c16.4,0,27.6-10,27.6-24.4l-0.8-434.8c0-20.8,14.8-37.2,33.2-37.2
	c18.8,0,33.2,15.6,33.2,36.4v29.6c0,2.4-1.6,4-4,4s-4-1.6-4-4v-30C496.2,20,485.4,8,471,8c-16,0-25.2,14.8-25.2,29.2l0.8,434.8
	C446.6,491.2,431.8,504.8,411,504.8z M8.6,448v23.6C8.6,488.4,23.4,496,37,496h348c-7.2-5.6-12.4-14-12.4-24.4V448H8.6z"/>
</svg>