<?xml version="1.0" encoding="utf-8"?>
<!-- Uploaded to: SVG Repo, www.svgrepo.com, Generator: SVG Repo Mixer Tools -->
<svg width="800px" height="800px" viewBox="0 -32.5 1089 1089" class="icon"  version="1.1" xmlns="http://www.w3.org/2000/svg"><path d="M508.575251 948.655518H294.870903c-21.918395 0-40.069565-17.808696-40.069565-40.069565v-213.704348c0-21.918395 17.808696-40.069565 40.069565-40.069565h213.704348c21.918395 0 40.069565 17.808696 40.069565 40.069565v213.704348c0 21.918395-18.151171 40.069565-40.069565 40.069565z" fill="#AA9DEE" /><path d="M521.246823 655.839465c4.109699 6.164548 6.507023 13.698997 6.507023 21.918395v213.704347c0 21.918395-17.808696 40.069565-40.069565 40.069566H273.979933c-3.424749 0-6.849498-0.342475-9.931772-1.3699 7.191973 10.959197 19.52107 17.808696 33.220066 17.808696h213.704348c21.918395 0 40.069565-17.808696 40.069565-40.069566v-213.704347c0-18.151171-12.671572-33.905017-29.795317-38.357191z" fill="#7873E0" /><path d="M846.940468 907.901003h-166.100334c-21.918395 0-40.069565-17.808696-40.069565-40.069565V702.073579c0-21.918395 17.808696-40.069565 40.069565-40.069566h166.100334c21.918395 0 40.069565 17.808696 40.069565 40.069566v166.100334c0 21.918395-18.151171 39.72709-40.069565 39.72709z" fill="#AA9DEE" /><path d="M863.036789 665.428763c4.794649 6.507023 7.534448 14.726421 7.534448 23.288294v166.100334c0 21.918395-17.808696 40.069565-40.069565 40.069566H664.401338c-5.479599 0-10.959197-1.027425-15.753846-3.082275 7.191973 9.931773 19.178595 16.438796 32.192642 16.438796h166.100334c21.918395 0 40.069565-17.808696 40.069565-40.069565V702.073579c0.342475-16.096321-9.931773-30.480268-23.973244-36.644816z" fill="#7873E0" /><path d="M939.751171 575.35786h-262.335786c-21.918395 0-40.069565-17.808696-40.069566-40.069566V280.486957c0-21.918395 17.808696-40.069565 40.069566-40.069566h262.335786c21.918395 0 40.069565 17.808696 40.069565 40.069566v255.143812c0 21.918395-18.151171 39.72709-40.069565 39.727091z" fill="#AA9DEE" /><path d="M952.765217 243.84214c4.794649 6.507023 7.534448 14.726421 7.534449 23.288295v255.143812c0 21.918395-17.808696 40.069565-40.069566 40.069566h-262.335786c-5.479599 0-10.959197-1.027425-15.753846-3.082275 7.191973 9.931773 19.178595 16.438796 32.192642 16.438796h262.335786c21.918395 0 40.069565-17.808696 40.069566-40.069565V280.486957c0.342475-16.438796-9.589298-30.822742-23.973245-36.644817z" fill="#7873E0" /><path d="M507.890301 575.015385h-339.050167c-21.918395 0-40.069565-17.808696-40.069565-40.069566v-339.050167c0-21.918395 17.808696-40.069565 40.069565-40.069565h339.050167c21.918395 0 40.069565 17.808696 40.069565 40.069565v339.050167c-0.342475 22.26087-18.151171 40.069565-40.069565 40.069566z" fill="#AA9DEE" /><path d="M375.352508 132.880268H223.978595c-7.191973 0-13.356522-5.822074-13.356521-13.356522 0-7.191973 5.822074-13.356522 13.356521-13.356522h151.373913c7.191973 0 13.356522 5.822074 13.356522 13.356522 0 7.191973-5.822074 13.356522-13.356522 13.356522zM92.468227 191.101003c-7.191973 0-13.356522-5.822074-13.356521-13.356521v-18.151171c0-29.452843 23.973244-53.083612 53.083612-53.083612h7.534448c7.191973 0 13.356522 5.822074 13.356522 13.356522 0 7.191973-5.822074 13.356522-13.356522 13.356521h-7.534448c-14.726421 0-26.713043 11.986622-26.713044 26.713044V178.086957c0.342475 6.849498-5.822074 13.014047-13.014047 13.014046z" fill="#493B4E" /><path d="M161.648161 260.965886c-7.191973 0-13.356522-5.822074-13.356522-13.356521V229.458194c0-29.452843 23.973244-53.083612 53.083612-53.083612H208.909699c7.191973 0 13.356522 5.822074 13.356522 13.356522 0 7.191973-5.822074 13.356522-13.356522 13.356521h-7.534448c-14.726421 0-26.713043 11.986622-26.713044 26.713044v18.15117c0.342475 7.191973-5.822074 13.014047-13.014046 13.014047zM282.884281 738.718395c-5.822074 0-10.616722-4.794649-10.616722-10.616723v-14.726421c0-23.630769 19.178595-42.809365 42.809364-42.809365h6.164549c5.822074 0 10.616722 4.794649 10.616722 10.616723 0 5.822074-4.794649 10.616722-10.616722 10.616722H315.076923c-11.644147 0-21.57592 9.589298-21.57592 21.57592v14.726421c0 5.822074-4.794649 10.616722-10.616722 10.616723z" fill="#FFFFFF" /><path d="M92.468227 268.500334c-7.191973 0-13.356522-5.822074-13.356521-13.356521V209.252174c0-7.191973 5.822074-13.356522 13.356521-13.356522s13.356522 5.822074 13.356522 13.356522v45.891639c0 7.191973-6.164548 13.356522-13.356522 13.356521zM517.479599 597.618729H132.195318c-29.452843 0-53.083612-23.973244-53.083612-53.083612V290.076254c0-7.191973 5.822074-13.356522 13.356521-13.356522s13.356522 5.822074 13.356522 13.356522V544.535117c0 14.726421 11.986622 26.713043 26.713044 26.713044h384.941806c14.726421 0 26.713043-11.986622 26.713043-26.713044V159.250836c0-14.726421-11.986622-26.713043-26.713043-26.713043h-142.127091c-7.191973 0-13.356522-5.822074-13.356521-13.356522 0-7.191973 5.822074-13.356522 13.356521-13.356522h142.127091c29.452843 0 53.083612 23.973244 53.083612 53.083612V544.535117c0 29.452843-23.630769 53.083612-53.083612 53.083612zM781.527759 931.189298c-0.342475 0-0.342475 0 0 0h-4.452174c-7.191973-0.342475-13.014047-6.164548-13.014047-13.698997 0.342475-7.191973 6.164548-13.014047 13.698997-13.014047h4.109699c7.191973 0.342475 13.014047 6.164548 13.014047 13.698997-0.342475 7.191973-6.164548 13.014047-13.356522 13.014047zM827.076923 932.216722l-16.781271-0.342475c-7.191973-0.342475-13.014047-6.164548-13.014047-13.698996 0.342475-7.191973 6.164548-13.014047 13.698997-13.014047l16.438796 0.342475c7.191973 0.342475 13.014047 6.164548 13.014047 13.698997 0 7.191973-6.164548 13.014047-13.356522 13.014046z" fill="#493B4E" /><path d="M697.27893 705.498328s-0.342475 0 0 0l-16.781271-0.68495c-7.191973-0.342475-13.014047-6.507023-13.014047-13.698997 0.342475-7.191973 6.507023-13.014047 13.698997-13.014047l16.438796 0.68495c7.191973 0.342475 13.014047 6.507023 13.014047 13.698997-0.342475 7.191973-6.164548 13.014047-13.356522 13.014047z" fill="#FFFFFF" /><path d="M855.844816 926.052174h-1.3699c-7.191973-0.342475-13.014047-6.164548-13.014046-13.698997 0.342475-7.191973 6.164548-13.014047 13.698996-13.014047 7.191973 0.342475 13.698997-2.397324 18.836121-7.534448 5.137124-4.794649 8.219398-11.644147 8.219398-18.493645l0.684949-21.918395c0.342475-7.191973 6.164548-13.014047 13.698997-13.014047 7.191973 0.342475 13.014047 6.164548 13.014047 13.698997l-0.68495 21.918395c-0.342475 14.041472-6.164548 27.397993-16.438796 37.329766-9.931773 9.589298-22.945819 14.726421-36.644816 14.726421zM650.017391 930.846823c-14.041472 0-27.397993-5.479599-37.329766-15.411371-10.274247-9.931773-15.753846-23.288294-15.753846-37.672241l-1.369899-205.48495c-0.342475-29.452843 23.630769-53.426087 53.083612-53.426087l205.484949-1.3699h0.342475c14.041472 0 27.397993 5.479599 37.329766 15.411371 10.274247 9.931773 15.753846 23.288294 15.753846 37.672241l1.027425 136.989967c0 7.191973-5.822074 13.356522-13.356522 13.356522-7.191973 0-13.356522-5.822074-13.356521-13.356522l-1.027425-136.989967c0-7.191973-2.739799-13.698997-7.876923-18.83612-5.137124-5.137124-11.644147-7.876923-18.836121-7.876923h-0.342474l-205.48495 1.369899c-14.726421 0-26.713043 11.986622-26.370569 26.713044l1.3699 205.48495c0 7.191973 2.739799 13.698997 7.876923 18.83612 5.137124 5.137124 11.644147 7.534448 18.83612 7.876923l131.167893-0.68495c7.534448-0.342475 13.356522 5.822074 13.356522 13.356522s-5.822074 13.356522-13.356522 13.356522l-131.167893 0.68495c0.342475 0 0.342475 0 0 0zM948.655518 597.961204h-306.51505c-28.082943 0-51.028763-22.945819-51.028762-51.028763V240.417391c0-28.082943 22.945819-51.028763 51.028762-51.028762h35.617392c7.191973 0 13.356522 5.822074 13.356521 13.356522 0 7.191973-5.822074 13.356522-13.356521 13.356521h-35.617392c-13.356522 0-24.315719 10.959197-24.315719 24.315719v306.51505c0 13.356522 10.959197 24.315719 24.315719 24.31572H948.655518c13.356522 0 24.315719-10.959197 24.315719-24.31572V240.417391c0-13.356522-10.959197-24.315719-24.315719-24.315719h-157.195986c-7.191973 0-13.356522-5.822074-13.356522-13.356521 0-7.191973 5.822074-13.356522 13.356522-13.356522H948.655518c28.082943 0 51.028763 22.945819 51.028763 51.028762v306.51505c0 28.082943-22.945819 51.028763-51.028763 51.028763z" fill="#493B4E" /><path d="M757.554515 216.101672h-40.41204c-7.191973 0-13.356522-5.822074-13.356522-13.356521 0-7.191973 5.822074-13.356522 13.356522-13.356522h40.41204c7.191973 0 13.356522 5.822074 13.356522 13.356522-0.342475 7.191973-6.164548 13.356522-13.356522 13.356521z" fill="#493B4E" /><path d="M727.416722 279.117057h-40.41204c-7.191973 0-13.356522-5.822074-13.356521-13.356522s5.822074-13.356522 13.356521-13.356522h40.41204c7.191973 0 13.356522 5.822074 13.356522 13.356522s-5.822074 13.356522-13.356522 13.356522z" fill="#FFFFFF" /><path d="M518.849498 971.601338H320.556522c-7.191973 0-13.356522-5.822074-13.356522-13.356522s5.822074-13.356522 13.356522-13.356522h198.292976c13.698997 0 24.658194-10.959197 24.658194-24.658194v-253.431438c0-13.698997-10.959197-24.658194-24.658194-24.658194h-253.431438c-13.698997 0-24.658194 10.959197-24.658194 24.658194v92.810703c0 7.191973-5.822074 13.356522-13.356522 13.356521s-13.356522-5.822074-13.356521-13.356521v-92.810703c0-28.425418 22.945819-51.371237 51.371237-51.371237h253.431438c28.425418 0 51.371237 22.945819 51.371238 51.371237v253.431438c0 28.425418-22.945819 51.371237-51.371238 51.371238zM284.93913 968.176589h-22.945819c-28.425418 0-51.371237-22.945819-51.371237-51.371238V835.638796c0-7.191973 5.822074-13.356522 13.356521-13.356522 7.191973 0 13.356522 5.822074 13.356522 13.356522v81.166555c0 13.698997 10.959197 24.658194 24.658194 24.658194h22.945819c7.191973 0 13.356522 5.822074 13.356522 13.356522s-6.164548 13.356522-13.356522 13.356522z" fill="#493B4E" /><path d="M529.123746 160.278261c3.082274 5.479599 4.794649 11.986622 4.794649 18.493645v339.050168c0 21.918395-17.808696 40.069565-40.069566 40.069565h-339.050167c-6.849498 0-13.356522-1.712375-18.83612-4.794649 6.849498 12.671572 19.863545 21.233445 35.274916 21.233445h339.050167c21.918395 0 40.069565-17.808696 40.069566-40.069565V195.210702c0-15.068896-8.561873-28.425418-21.233445-34.932441z" fill="#7873E0" /><path d="M248.294314 189.388629m-13.356521 0a13.356522 13.356522 0 1 0 26.713043 0 13.356522 13.356522 0 1 0-26.713043 0Z" fill="#FFFFFF" /><path d="M657.551839 302.405351m-13.356521 0a13.356522 13.356522 0 1 0 26.713043 0 13.356522 13.356522 0 1 0-26.713043 0Z" fill="#FFFFFF" /></svg>