<?xml version="1.0" encoding="iso-8859-1"?>
<!-- Uploaded to: SVG Repo, www.svgrepo.com, Generator: SVG Repo Mixer Tools -->
<svg version="1.1" id="Layer_1" xmlns="http://www.w3.org/2000/svg" xmlns:xlink="http://www.w3.org/1999/xlink" 
	 viewBox="0 0 482.2 482.2" xml:space="preserve">
<circle style="fill:#324A5E;" cx="241.1" cy="241.1" r="241.1"/>
<path style="fill:#FF7058;" d="M342,157.4h24.6c1.6,0,2.8-1.3,2.8-2.8v-39.4c0-1.6-1.3-2.8-2.8-2.8H342c-1.6,0-2.8,1.3-2.8,2.8v39.4
	C339.2,156.1,340.4,157.4,342,157.4z"/>
<path style="fill:#4CDBC4;" d="M342,215.1h24.6c1.6,0,2.8-1.3,2.8-2.8v-39.4c0-1.6-1.3-2.8-2.8-2.8H342c-1.6,0-2.8,1.3-2.8,2.8v39.4
	C339.2,213.9,340.4,215.1,342,215.1z"/>
<path style="fill:#54C0EB;" d="M342,272.9h24.6c1.6,0,2.8-1.3,2.8-2.8v-39.4c0-1.6-1.3-2.8-2.8-2.8H342c-1.6,0-2.8,1.3-2.8,2.8v39.4
	C339.2,271.6,340.4,272.9,342,272.9z"/>
<path style="fill:#FFD05B;" d="M342,330.6h24.6c1.6,0,2.8-1.3,2.8-2.8v-39.4c0-1.6-1.3-2.8-2.8-2.8H342c-1.6,0-2.8,1.3-2.8,2.8v39.4
	C339.2,329.3,340.4,330.6,342,330.6z"/>
<path style="fill:#E6E9EE;" d="M347,87.3H150.5v307.6H347c1.3,0,2.4-1.1,2.4-2.4V89.7C349.4,88.3,348.3,87.3,347,87.3z"/>
<path style="fill:#ACB3BA;" d="M152.8,87.3h-25.2c-8.2,0-14.8,6.6-14.8,14.8v278c0,8.2,6.6,14.8,14.8,14.8h25.2V87.3z"/>
<g>
	<circle style="fill:#324A5E;" cx="132.8" cy="156.1" r="9.3"/>
	<circle style="fill:#324A5E;" cx="132.8" cy="326.1" r="9.3"/>
</g>
<g>
	<rect x="179.5" y="124.6" style="fill:#CED5E0;" width="137.1" height="15.1"/>
	<rect x="179.5" y="165.3" style="fill:#CED5E0;" width="137.1" height="15.1"/>
	<rect x="179.5" y="206.1" style="fill:#CED5E0;" width="137.1" height="15.1"/>
	<rect x="179.5" y="246.8" style="fill:#CED5E0;" width="92.5" height="15.1"/>
</g>
</svg>