<?xml version="1.0" encoding="iso-8859-1"?>

<!DOCTYPE svg PUBLIC "-//W3C//DTD SVG 1.1//EN" "http://www.w3.org/Graphics/SVG/1.1/DTD/svg11.dtd">
<!-- Uploaded to: SVG Repo, www.svgrepo.com, Generator: SVG Repo Mixer Tools -->
<svg version="1.1" id="_x36_" xmlns="http://www.w3.org/2000/svg" xmlns:xlink="http://www.w3.org/1999/xlink" 
	 viewBox="0 0 512 512"  xml:space="preserve">
<g>
	<rect x="0.022" y="104.982" style="fill:#706A64;" width="511.957" height="354.159"/>
	<polygon style="fill:#787471;" points="511.978,105.705 0.022,105.705 0.311,105.343 0.601,104.982 81.706,0 430.294,0 
		453.663,30.243 511.4,104.982 511.689,105.343 	"/>
	<g>
		<rect x="103.9" y="186.336" style="fill:#E4E3E3;" width="304.201" height="105.693"/>
		<rect x="120.322" y="198.004" style="fill:#FFFFFF;" width="295.207" height="97.457"/>
		<g>
			<path style="fill:#F4EFE9;" d="M93.355,174.656v127.7h325.291v-127.7H93.355z M107.391,187.028h297.219v102.955H107.391V187.028z
				"/>
		</g>
	</g>
	<rect y="105.35" style="opacity:0.1;fill:#FFFFFF;" width="512" height="13.383"/>
	<g>
		<rect x="142.221" y="358.089" style="fill:#F4EFE9;" width="227.557" height="40.663"/>
		<g>
			<g>
				<rect x="157.506" y="332.007" style="fill:#F4EFE9;" width="15.238" height="26.698"/>
				<rect x="339.256" y="332.007" style="fill:#F4EFE9;" width="15.238" height="26.698"/>
			</g>
			<g>
				<rect x="157.506" y="332.007" style="fill:#FFFFFF;" width="15.238" height="26.698"/>
				<rect x="339.256" y="332.007" style="fill:#FFFFFF;" width="15.238" height="26.698"/>
			</g>
		</g>
	</g>
	<rect x="142.221" y="365.038" style="opacity:0.06;fill:#040000;" width="227.557" height="34.4"/>
	<g>
		<path style="fill:#5A5B5B;" d="M164.114,229.064v-7.669h-28.868v43.845h8.61v-17.799h17.292v-7.669h-17.292v-10.708H164.114z"/>
		<path style="fill:#5A5B5B;" d="M171.566,221.395v43.845h8.537v-43.845H171.566z"/>
		<path style="fill:#5A5B5B;" d="M198.915,257.57v-36.176h-8.538v43.845h28.434v-7.669H198.915z"/>
		<path style="fill:#5A5B5B;" d="M254.625,229.064v-7.669h-28.868v43.845h28.868v-7.669h-20.331v-10.636h17.292v-7.597h-17.292
			v-10.274H254.625z"/>
		<path style="fill:#5A5B5B;" d="M308.383,248.454c-0.435-1.23-1.158-2.315-2.099-3.328c-0.434-0.507-0.868-0.868-1.302-1.23
			c-0.507-0.289-1.158-0.651-2.026-1.157c3.617-1.954,5.426-5.065,5.426-9.261c0-1.881-0.29-3.545-0.941-4.992
			c-0.651-1.447-1.52-2.749-2.677-3.762c-1.23-1.085-2.605-1.881-4.341-2.46c-1.664-0.579-3.545-0.868-5.571-0.868h-17.581v43.845
			h18.305c2.098,0,3.907-0.29,5.571-0.941c1.664-0.579,3.111-1.375,4.268-2.46c1.158-1.085,2.026-2.46,2.677-3.979
			c0.579-1.52,0.941-3.256,0.941-5.209C309.033,251.131,308.817,249.684,308.383,248.454z M285.809,229.064h8.393
			c1.736,0,3.111,0.434,4.124,1.302c1.013,0.941,1.519,2.171,1.519,3.69c0,1.592-0.506,2.821-1.519,3.69
			c-1.013,0.94-2.388,1.375-4.124,1.375h-8.393V229.064z M298.904,256.123c-1.013,1.013-2.387,1.447-4.196,1.447h-8.9v-10.78h8.9
			c1.809,0,3.184,0.506,4.196,1.447c1.013,0.941,1.52,2.243,1.52,3.907C300.424,253.88,299.917,255.183,298.904,256.123z"/>
		<path style="fill:#5A5B5B;" d="M348.537,237.674c-0.072-1.736-0.217-3.256-0.507-4.703c-0.29-1.375-0.724-2.677-1.302-3.907
			c-0.651-1.158-1.447-2.315-2.605-3.401c-1.447-1.519-3.111-2.604-4.992-3.4c-1.881-0.796-4.124-1.23-6.657-1.23
			c-2.532,0-4.775,0.434-6.729,1.23c-1.881,0.796-3.545,1.881-5.065,3.4c-1.085,1.086-1.953,2.243-2.532,3.401
			c-0.579,1.23-1.013,2.532-1.302,3.907c-0.29,1.447-0.434,2.967-0.507,4.703c-0.073,1.664-0.073,3.545-0.073,5.643
			c0,2.099,0,3.979,0.073,5.644c0.072,1.664,0.217,3.256,0.507,4.631c0.289,1.447,0.723,2.749,1.302,3.907
			c0.579,1.23,1.447,2.388,2.532,3.473c1.52,1.52,3.184,2.605,5.065,3.401c1.954,0.796,4.197,1.23,6.729,1.23
			c2.533,0,4.775-0.434,6.657-1.23c1.881-0.796,3.545-1.881,4.992-3.401c1.158-1.085,1.954-2.243,2.605-3.473
			c0.579-1.158,1.013-2.46,1.302-3.907c0.289-1.375,0.434-2.967,0.507-4.631c0.072-1.664,0.072-3.545,0.072-5.644
			C348.61,241.219,348.61,239.338,348.537,237.674z M340,248.527c-0.145,1.375-0.217,2.46-0.434,3.4
			c-0.145,0.868-0.362,1.592-0.651,2.099c-0.217,0.578-0.579,1.085-1.013,1.519c-0.578,0.724-1.375,1.302-2.243,1.736
			c-0.941,0.434-2.026,0.651-3.184,0.651c-1.23,0-2.243-0.217-3.184-0.651c-0.941-0.434-1.736-1.013-2.387-1.736
			c-0.362-0.434-0.724-0.941-1.013-1.519c-0.29-0.507-0.507-1.23-0.651-2.099c-0.144-0.941-0.289-2.026-0.289-3.4
			c-0.073-1.375-0.145-3.111-0.145-5.21c0-2.098,0.072-3.834,0.145-5.209c0-1.375,0.145-2.533,0.289-3.401
			c0.145-0.941,0.362-1.664,0.651-2.17c0.289-0.579,0.651-1.085,1.013-1.52c0.651-0.723,1.447-1.302,2.387-1.736
			c0.941-0.434,1.954-0.579,3.184-0.579c1.158,0,2.243,0.144,3.184,0.579c0.868,0.434,1.664,1.013,2.243,1.736
			c0.434,0.434,0.796,0.941,1.013,1.52c0.289,0.507,0.507,1.23,0.651,2.17c0.217,0.868,0.289,2.026,0.434,3.401
			c0.072,1.375,0.072,3.111,0.072,5.209C340.072,245.415,340.072,247.152,340,248.527z"/>
		<path style="fill:#5A5B5B;" d="M375.452,242.738l12.734-21.344h-9.695l-7.669,14.18l-7.669-14.18h-9.695l12.734,21.344
			l-13.602,22.501h9.767l8.465-15.266l8.465,15.266h9.767L375.452,242.738z"/>
	</g>
	<g>
		<circle style="opacity:0.2;fill:#F4EFE9;" cx="416.666" cy="347.038" r="24.364"/>
		<g style="opacity:0.5;">
			<circle style="fill:#040000;" cx="416.666" cy="341.6" r="7.841"/>
			<path style="fill:#040000;" d="M412.157,360.318c-2.24,0-3.259-1.642-2.263-3.649l4.961-9.999c0.996-2.007,2.625-2.007,3.621,0
				l4.961,9.999c0.996,2.007-0.022,3.649-2.263,3.649H412.157z"/>
		</g>
	</g>
</g>
</svg>