<?xml version="1.0" encoding="iso-8859-1"?>
<!-- Uploaded to: SVG Repo, www.svgrepo.com, Generator: SVG Repo Mixer Tools -->
<svg height="800px" width="800px" version="1.1" id="Layer_1" xmlns="http://www.w3.org/2000/svg" xmlns:xlink="http://www.w3.org/1999/xlink" 
	 viewBox="0 0 512.007 512.007" xml:space="preserve">
<circle style="fill:#0F7986;" cx="255.999" cy="256.004" r="255.999"/>
<path style="fill:#21D0C3;" d="M154.054,59.957h160.995c5.658,0,10.267,4.619,10.267,10.274v57.78h-24.455V88.356
	c0-3.46-2.783-6.282-6.185-6.282H174.419c-3.399,0-6.196,2.84-6.196,6.282v39.654h-24.444V70.23c0-5.655,4.617-10.274,10.272-10.274
	H154.054z"/>
<path style="fill:#15BDB2;" d="M308.41,128.01h-7.541V88.356c0-3.46-2.789-6.282-6.19-6.282H174.419c-3.394,0-6.19,2.84-6.19,6.282
	v39.654h-7.536V83.779c0-5.012,3.767-9.094,8.365-9.094h130.99c4.596,0,8.363,4.081,8.363,9.094L308.41,128.01L308.41,128.01z"/>
<path style="fill:#FF5B62;" d="M35.88,118.208h397.33c9.052,0,16.46,7.431,16.46,16.46v258.009c0,9.028-7.436,16.46-16.46,16.46
	h-47.592v3.132c0,3.119-2.547,5.666-5.663,5.666h-44.822c-3.119,0-5.666-2.547-5.666-5.666v-3.132H139.622v3.132
	c0,3.119-2.544,5.666-5.668,5.666h-44.82c-3.121,0-5.666-2.547-5.666-5.666v-3.132H35.88c-9.018,0-16.46-7.405-16.46-16.46v-258.01
	C19.421,125.608,26.83,118.208,35.88,118.208z"/>
<path style="fill:#ED4C54;" d="M448.925,397.544c-2.099,6.681-8.384,11.588-15.714,11.588h-47.592v3.132
	c0,3.119-2.547,5.666-5.663,5.666h-44.822c-3.119,0-5.666-2.547-5.666-5.666v-3.132H139.622v3.132c0,3.119-2.544,5.666-5.668,5.666
	h-44.82c-3.121,0-5.666-2.547-5.666-5.666v-3.132H35.88c-7.332,0-13.618-4.891-15.714-11.588H448.925z"/>
<circle style="fill:#FFFFFF;" cx="412.981" cy="387.626" r="99.026"/>
<path style="fill:#15BDB2;" d="M412.976,299.3c48.78,0,88.324,39.545,88.324,88.324s-39.545,88.324-88.324,88.324
	s-88.324-39.545-88.324-88.324S364.197,299.3,412.976,299.3z"/>
<path style="fill:#21D0C3;" d="M412.976,299.3c34.985,0,65.215,20.341,79.519,49.842c2.154,8.01,3.307,16.428,3.307,25.118
	c0,53.295-43.206,96.5-96.5,96.5c-7.931,0-15.635-0.965-23.012-2.77c-30.468-13.931-51.639-44.674-51.639-80.367
	C324.652,338.844,364.197,299.3,412.976,299.3z"/>
<path style="fill:#FFFFFF;" d="M468.159,318.663c16.423,13.159,28.048,32.063,31.82,53.667c-0.267-0.409-0.538-0.947-0.813-1.742
	c-1.724,0.567-1.782,0.611-3.817,0.952l-0.089,0.124c-0.81,1.154,0.039,0.664-1.382,1.867c-1.695,1.427-2.798,3.373-4.693,4.527
	c-0.229,2.017,0.168,2.468-0.338,4.87c-0.2,0.884-1.189,3.261-2.347,3.079c-0.367-0.068-1.922-3.918-2.29-4.983
	c-0.622-1.812-1.329-3.148-1.782-5.231c-0.255-1.112-0.425-3.237-0.68-3.987c-1.215,0.181-1.162,0.952-2.318,0.137
	c-0.818-0.59-0.451-0.949-0.905-1.833c-0.96-0.905-1.951-1.812-2.94-2.718c-0.766-0.25-3.707,0.179-4.949,0.045
	c-2.235-0.205-2.431-0.068-3.762-1.857c-2.347,0.116-2.151,0.997-4.44-0.973c-1.5-1.27-1.217-3.305-3.394-2.151
	c-0.081,1.857,0.821,2.267,1.642,3.124c0.593,0.659,1.329,1.112,1.64,1.991c0.029,0.024,0.173,0.863,0.2,0.973
	c2.12,0.139,2.628-0.881,3.788-1.742c1.133,1.065,0.029,1.246,1.669,2.083c1.301,0.659,1.047,0.272,1.894,1.337
	c0.425,1.427-2.911,5.299-4.016,6.001c-0.847,0.543-1.301,0.226-2.062,0.857c-1.131,0.955,0.142,0.815-1.838,1.542
	c-2.12,0.772-4.215,2.4-6.447,2.536c-0.48-1.314-0.963-2.647-1.442-3.984c-1.416-4.551-1.358-2.783-2.802-5.139
	c-0.68-1.02-0.396-1.676-0.85-2.584c-0.312-0.68-0.792-0.973-1.217-1.809c-0.651-1.293-1.411-3.307-2.911-3.103
	c-0.312,1.018,1.385,4.459,1.809,5.299c0.425,0.839,1.102,1.202,1.301,2.402c0.28,1.653-0.058,1.445,0.847,2.555
	c1.894,2.288-0.084,1.88,2.856,4.121c2.204,1.676,1.64,2.175,2.573,4.417c1.442,0.406,5.739-1.516,6.473-0.952
	c0.876,1.561-1.015,4.052-1.498,5.411c-1.584,4.553-4.354,4.485-6.476,7.971c-1.16,1.88-1.697,2.13-2.773,4.393
	c-1.217,2.557,2.46,9.645,0.255,12.614c-0.48,0.677-2.035,1.086-3.987,3.148c-2.064,2.24,0.055,1.854-0.737,5.592
	c-0.622,0.86-1.385,0.905-2.148,1.519c-0.283,0.881-0.058,1.582-0.538,2.67c-0.509,1.314-0.593,0.611-1.329,1.676
	c-0.538,0.836-0.48,1.175-1.102,1.946c-0.538,0.703-0.821,0.905-1.327,1.358c-2.46,2.264-7.749,2.331-8.2,2.014
	c-1.246-1.065-0.396-1.337-0.709-2.83c-0.301-1.314-0.999-2.413-1.582-3.428l-0.058-0.105c-0.28-0.496-0.538-0.973-0.68-1.427
	c-1.018-3.216-0.648-5.661-2.429-8.921c-2.235-4.215,1.244-6.408,1.102-8.787c-0.058-0.635-0.28-1.02-0.338-1.519
	c-0.425-2.626-0.677-4.981-2.431-7.043c-1.922-2.24-1.671-1.448-1.047-5.139c0.792-4.236-1.018-3.148-3.562-3.261
	c-1.246-3.847-3.678-1.972-6.109-0.839c-1.527,0.701-2.093-0.202-3.82,0.045c-3.845,0.522-0.818,2.175-5.967-1.901
	c-2.148-1.7-0.709-0.839-1.98-2.966c-0.425-0.771-1.726-1.788-2.318-2.56c-1.949-2.444,0.37-4.912,0.029-7.722
	c-0.596-5.207-1.442-0.68,1.469-6.974c1.527-3.352,3.845-3.373,4.44-4.868c0.509-1.335,0.168-2.288,1.131-3.509
	c0.85-0.997,2.064-0.792,2.544-2.355c0.677-1.925-0.622-2.172-2.035-2.219c-0.593-2.014-0.593-1.516-0.142-3.373
	c0.255-1.041,0.026-1.542,0.255-2.584c0.567-2.602,5.004-0.021,6.277-1.086c0.593-1.11,0.68-2.196,0-3.261
	c-0.709-1.062-1.64-0.928-2.12-1.946c1.076-0.722,0.28-0.089,1.217-0.293c1.102-0.247,0.96-0.567,2.261-0.813
	c1.16-0.229,1.896-1.293,3.027-2.014c1.611-1.041,0.847-1.972,2.799-2.288c3.14-0.546,1.102-0.454,1.442-3.375
	c0.477-0.181,0.931-0.385,1.385-0.588c0.991,1.293-0.252,0.771,0.934,1.632c0.312-0.181,0.68-0.362,1.018-0.54
	c-0.171-1.406-0.818-1.133-1.246-2.877c-1.555,0.247-2.12,1.561-3.365,1.086c-1.217-0.454-1.272-2.198-1.217-3.646
	c0.451-1.086,2.712-1.674,3.591-1.946c1.416-0.475,1.217-1.427,2.518-2.718c1.697-1.7,0.451,0.024,1.272-2.172
	c1.865-0.071,0.989-0.139,2.093-0.703l0.055-0.024l0.113-0.045c0.653-0.293,1.5-0.362,2.35-0.656
	c3.108-1.041,4.38-0.522,6.644,0.406c1.753,0.724,7.043,0.748,7.438,2.969c-1.272,1.332-2.489,0.362-4.326,0.475
	c0.338,1.721,0.48,1.721,2.035,2.196c0.255-0.815-0.113-0.496,0.312-1.018c0.509,0.113,1.018,0.202,1.527,0.293
	c0.512-1.745,1.104-1.492,2.83-1.7c-0.283-1.202-0.596-0.86,0.055-1.812c1.783,0.184,0.338,0.024,1.217,1.45
	c1.244-0.16,2.46-1.542,4.184-1.721c1.076-0.113,1.02,0.293,2.544,0.134c1.246-0.134,1.189-0.588,2.434-0.068
	c0.451-0.839,0-0.815,1.102-1.018c1.695-0.296,3.169,0.745,4.806,0.973c-1.215-1.495-2.373-1.202-0.876-3.691
	c1.894-0.385,2.064-0.113,2.885,1.314c0.467-0.262,0.664-0.525,0.892-0.659h0.003V318.663z M326.719,368.576
	c3.979-18.104,13.509-34.125,26.718-46.189c1.026,0.356,2.381,0.121,3.402,0.079c0.364-0.677,0.593-1.27,1.244-1.516
	c0.255-0.092,0.567-0.113,0.989-0.092c0.058,0.338,0.142,0.68,0.226,1.018c0,0.026,0.058,0.252,0.032,0.208
	c0.026-0.047,0.055,0.134,0.081,0.202c1.783-1.041,0.283-1.065,1.246-2.943c-1.5-0.296-1.301-0.116-2.235-1.068
	c0.907-0.997,2.657-1.335,3.96-1.244c-0.087,0.905-0.509,0.884-0.171,1.653c1.018-0.635,1.724-2.329,3.365-2.014
	c0.309,0.226,0.68,0.43,1.018,0.632c-0.85,0.794-2.12,0.839-3.224,1.293c-0.48,4.915,1.556,0.792,0.876,4.168
	c1.215-0.089,2.402-0.973,2.853-1.878c-0.451-0.588-1.102-0.588-1.469-1.293c0.285-0.905,0.894-1.592,1.753-1.999
	c0.582-0.278,1.277-0.422,2.064-0.422c8.991,0.068,4.722,0.475,7.494,1.745c0.622,0.27,1.724,0.406,2.093,0.949
	c0.567,0.863,0.029,1.676,0.931,2.355c0.792,0.588,0.907-0.024,1.951,1.293c-0.226,0.745-0.764,1.516-1.865,1.54
	c-1.527,0.024-0.622-1.02-2.264-0.863c0.029,1.54,1.555,2.13,0.139,2.966c-1.244,0.748-0.454-0.27-1.385,0.25
	c-0.029,0.024-0.116,0.068-0.142,0.092c-0.058,0.045-0.113,0.113-0.142,0.158c-0.168,0.181-0.312,0.338-0.451,0.501
	c-2.261-0.614-1.836-0.338-3.195-1.833c-0.509-0.567-0.593-0.703-1.5-0.632c-0.564,0.021-1.301,0.267-1.838-0.229
	c1.104-1.379,1.642-0.045,3.253-0.86c0.283-0.137,2.064-1.516,2.35-1.833c-0.483-1.086-0.058-0.184-0.764-0.884
	c-1.584-1.608-2.038-1.199-4.186-1.199c-1.007,1.157-1.76,2.589-2.853,3.219c-0.661,0.38-1.448,0.467-2.489,0.024
	c0.48,1.946,1.724,0.454,1.836,2.807c-0.818-0.16-1.246-0.569-2.093-0.272c-1.809,0.68-0.197,0.611-0.055,0.973
	c0,0.024,0.847,0.113,0,0.43c-0.934,0.338-0.142-0.181-1.951-1.246c0.255-0.454,0.511-0.926,0.764-1.403
	c-1.469,0.454-3.308,1.178-5.031,2.014c-1.951,0.973-3.791,2.085-4.891,3.103c-0.029,1.7,0.283,0.567,0.454,2.584
	c2.631,0.158,1.781,0.949,4.412,1.697c0.509,0.137,1.16,0.272,1.954,0.406c0,1.27-1.133,2.219-0.341,3.533
	c1.838,1.287,1.896-1.225,2.347-2.83c6.225-1.301,3.227-3.132,4.835-6.552c0.242-0.511,0.582-1.057,1.078-1.645
	c0.477,0.024,2.429,0.229,2.853,0.317c1.414,0.25,0.651,0.588,2.177,1.267c-0.029,1.223-0.651,2.807,1.16,2.515
	c1.385-0.247,1.076-1.335,2.773-1.608c0.764,1.788,0.567,2.56,0.905,4.711c4.074,1.587,2.261,2.877,1.469,5.844
	c0.511,0.25,1.047,0.477,1.584,0.701c-0.026,0.86-0.058,1.7-0.084,2.539c-0.084,0-4.354-0.931-4.638-1.018
	c0.651-1.859,1.838-1.88,2.602-3.783c-1.527,0.27-1.416,0.745-2.518,1.086c-0.989,0.296-1.753,0.089-2.798,0.229
	c-0.367,1.223-0.029-1.065,0.087,0.496c0.058,0.59,0.338,0.024-0.058,0.659c-1.414-0.659-0.931-2.198-3.565-0.772
	c0.593,0.272,1.189,0.522,1.809,0.772c-0.084,1.742-0.226,0.427-0.593,1.584c-0.907,2.966,2.46,1.131,3.336,0.973
	c-0.229,1.563-1.189,1.563-2.547,1.991c-1.498,0.454-1.949,1.065-3.14,1.34c0-1.859-0.28-0.296,0.538-1.587
	c-1.189,0.113-2.064,0.656-3.195,1.133l-0.113,0.045c-1.453,0.593-1.674,0.68-1.838,2.536c-1.244,0.383-2.686,0.815-3.562,1.724
	c-0.876,0.836-1.755,1.674-2.605,2.489c-0.084,0.068-0.142,0.137-0.197,0.181c0.312,2.331,0,2.376-1.416,3.287
	c-1.189,0.768-1.584,0.745-2.686,1.721c-3.536,3.171-1.838,1.697-1.642,7.156c-0.735-0.226-1.442-0.477-2.12-0.724
	c-0.538-3.622,0.197-2.421-2.715-3.261c-3.14-0.907-2.715,0.632-4.016,0.905c-1.442,0.314-2.151-1.314-4.244,0.045
	c-1.157,0.792-2.261,1.311-2.544,2.715c-0.338,1.7-1.102,2.943-0.989,4.824c0.197,5.096,4.835,5.387,6.022,3.011
	c0.792-1.584,0.593-2.444,3.169-2.038c0.254,1.358-0.142,2.355-0.483,3.396c-0.226,0.611-0.847,1.721-0.535,2.56
	c1.838,0.745,1.894-0.659,4.328,0.792c0.171,2.421-1.102,5.141,0.764,6.544c1.442,1.062,1.527,0.113,2.799-0.113
	c1.416-0.247,1.16,0.635,2.463,0.839c0.735-0.905,0.422-0.338,0.905-1.45c0.85-1.922,1.073-1.018,3.082-2.196
	c0.197-0.113,0.364-0.229,0.567-0.362c0.226,0.475,0.48,0.928,0.706,1.379c1.471-1.745,1.642-0.045,3.339,0.43
	c0.73,0.2,1.249,0.272,1.65,0.278c1.236,0.018,1.358-0.582,3.043,0.016c0.2,0.092,0.454,0.16,0.682,0.229
	c0.029,0,0.113,0.047,0.113,0.092c0.029,0.024,0.113,0.089,0.142,0.116c0.28,0.314,0.312,0.632,0.538,0.973
	c1.16,1.11,2.318,2.219,3.449,3.307c2.233,0.884,2.233-0.771,4.779,1.697c1.073,1.018,0.593,0.999,1.189,2.31
	c0.087,0.205,0.255,0.406,0.367,0.659c0.226,0.611,0.48,1.199,0.735,1.786c1.16,1.519,2.741,0.569,4.354,2.13
	c0.931,0.905,0.229,0.632,2.29,0.997c3.195,0.519,1.951,0.229,4.385,2.062c0.931,0.68,1.157,0.293,2.035,0.881
	c1.217,1.7,0.905,3.533-0.113,5.028c-3.14,4.574-2.064,3.827-2.206,7.452c-0.116,2.083-0.709,6.385-2.66,6.903
	c-7.098,1.993-2.969,3.375-4.835,6.885c-0.538,0.999-0.934,1.246-1.275,2.038c-1.411,3.305-0.422,4.414-4.609,3.67
	c0.396,0.701,0.142,0.226,0.538,0.86c1.244,1.925,1.442,3.375-1.104,3.847c-2.12,0.406-1.215,0-1.414,2.355
	c-0.821,0.341-1.189,0-1.726,0.543c0.735,1.358,0.058,0.229,1.303,0.999c-0.229,0.745-0.396,1.471-0.596,2.196
	c-0.48,1.768-0.622,0.139-0.792,2.198c0.735,0.338,1.246,0.27,1.894,1.157c-0.084,0.677-0.764,2.534-0.96,3.599
	c1.047,1.563,1.896,3.237,4.131,3.399c-0.029,1.311,0.28,1.175-0.85,1.445c-0.963,0.229-2.998-0.677-3.847-1.131
	c-1.469-0.792-2.83-1.836-3.817-3.328c-0.567-0.839-0.338-0.43-0.934-1.223c-1.073-1.382-0.648-2.017-0.96-2.945
	c-0.171-0.543-1.047-1.131-0.68-2.898c0.087-0.498,0.876-2.874-0.084-2.468c-0.963,0.385,0.735,0.226-0.593,0.86
	c-0.312-0.86-0.567-2.13-0.735-3.192c-0.338-1.788-0.764-1.857-0.963-2.943c-0.425-2.515,0.651-2.789-0.538-6.977
	c-0.779-2.773-0.467-9.333-1.29-12.7c-0.131-0.535-0.293-0.991-0.49-1.337c-0.764-1.267-2.631-1.854-4.129-2.877
	c-0.084-0.021-0.142-0.045-0.171-0.089c-2.064-1.45-4.016-7.132-5.658-9.259c-0.764-1.02-1.244-0.569-1.584-2.175
	c-0.367-1.471,0.197-1.223,0.68-2.447c-2.515-4.617,3.253-4.551,2.064-10.098c-0.254-1.018-0.989-2.444-1.611-2.895
	c-1.189,0.522-0.622,0.813-1.246,1.809c-0.96-0.543-1.922-1.089-2.853-1.629c-2.914-2.81-1.358-0.771-2.177-2.607
	c-1.753-3.847-3.423-1.697-5.513-3.599c-0.936-0.792-1.104-2.038-2.66-1.812c-2.345,0.314-1.047,0.68-3.478-0.454
	c-2.064-0.973-4.213-2.106-5.655-3.417c-0.076-2.749,0.761-2.484-1.329-5.023L326.719,368.576z M354.407,321.519
	c0.535-0.475,1.076-0.941,1.621-1.403l0.045,0.089c0.113,0.181,0.197,0.181,0.312,0.656c-1.432,0.349-1.432,0.588-1.98,0.659
	H354.407z M429.994,347.779c0.781,0.501,1.742,0.881,2.318,1.387c0.735,2.014-0.197,1.041,1.246,3.148
	c0.821,1.131,0.651,1.946,1.498,2.581c1.558-0.205,0.2,0.25,1.16-0.701c0.171-0.181,0.651-0.748,0.792-0.973
	c-0.509-0.768-0.818-0.839-1.27-1.632c1.75-2.329,2.515-0.997,2.94,0.546c1.104,4.278,2.799,3.032,4.215,2.827
	c1.442-0.202,0.197,0.047,1.498,0.385c1.246,0.317,0.651,0,1.527-0.226c2.969-0.727,0.68,5.028,0.37,5.661
	c-1.611,0.202-1.301-0.158-2.463-0.272c-2.345-0.247,0.142,1.406-5.4-0.406c-5.317-1.697-4.184-2.083-5.288,1.608
	c-1.215-0.092-1.157-0.317-2.288-0.701c-0.433-0.163-0.682-0.252-0.85-0.301l-0.055-0.018c-0.451-0.158,0-0.021-0.931-0.905
	c-0.821-0.772-2.827-0.952-4.244-1.7c0-1.223,1.073-2.24-0.226-3.691c-0.422-0.113-6.447,0.139-7.408,0.341
	c-1.949,0.406-2.293,2.059-4.978,1.7c-1.469-0.205-0.96-0.068-1.329-0.928c0.48-0.475,0-0.229,0.823-0.519
	c0.309-0.113,0.422-0.068,0.735-0.113c4.354-0.659,2.12-2.853,4.835-4.96c2.264-1.812,0.483,0.024,1.726-2.175
	c1.527-0.137,1.329,0.611,2.631-0.024c1.076-0.543,0.735-1.018,2.261-1.065c1.358,1.361,1.073,2.175,3.282,3.216
	c0.876,0.409,1.414,0.635,1.98,1.385c1.018,1.45,0.142,0.973,0.538,1.97c0.084-0.045,0.197-0.092,0.309-0.137l0.055-0.026
	c1.189-0.567-0.593-0.748,1.329-2.442c-0.564-0.406-0.976-0.695-1.329-0.897l-0.055-0.032c-1.498-0.881-0.905-0.068-2.827-2.468
	c-0.509-0.68-0.653-0.724-0.622-1.768c1.385-0.247,1.64,0.748,2.882,1.857c0.171,0.16,0.367,0.293,0.567,0.43l0.055,0.037
	L429.994,347.779L429.994,347.779z M460.195,408.742c-1.241,0.635-1.414,2.085-2.345,2.898c-1.018,0.928-2.376,0.501-2.773,2.219
	c-0.509,2.151,0.85,1.495-0.651,4.302c-0.535,1.041-0.564,3.643,0.258,4.417c2.46,2.376,3.791-3.622,4.354-5.503
	c0.425-1.335,0.821-2.853,1.273-4.1c0.454-1.337,1.102-2.513-0.116-4.236L460.195,408.742L460.195,408.742z M456.124,345.565
	c0.197,2.765,1.838,3.829,2.998,5.094c-0.142,1.314-0.454,0.973-0.425,2.806c1.385,0.999,2.402,1.608,4.213,1.112
	c0.255-2.219-0.454-2.109-1.131-3.622c0.113-0.184,0.422-0.406,0.48-0.454c0.509-0.677,0.257,0.27,0.509-0.884
	c-1.327-0.427-3.478-1.788-3.646-3.575c0.651-0.519,0.451-0.205,0.931-0.519c1.047-0.682,0.258,0.359,0.876-0.794
	c-0.535-1.041-1.131-1.223-2.431-0.703c-0.567,0.229-2.064,1.29-2.376,1.54h0.002V345.565z M444.559,346.289
	c-0.876-1.223-0.821-1.833-2.518-1.878c-0.677,0.724-1.469,1.812-1.836,2.922c-0.567,1.676-0.171,0.519-0.116,2.331
	c-0.029,0.068,0,0.16,0,0.229c-0.029,1.086-0.283-0.205-0.113,0.792c1.329-0.272,0.312-0.25,1.301-0.569
	c0.934-0.317,3.791-1.178,4.611-0.973c1.949,0.454,3.591,1.993,5.797,0.454c-0.113-1.97-2.489-2.718-4.129-3.578
	c0.084-1.809,0.567-0.383,0.451-2.127c-0.567-0.024-0.905-0.113-1.442,0.113c-1.272,0.567-0.567,0.724-0.567,0.928
	c0.058,0.973,1.272-0.205-0.026,0.997c-0.367,0.314-0.963,0.314-1.414,0.362v-0.004H444.559z M411.528,332.568
	c-0.055,3.171,1.047,2.106,2.093,3.67c-0.477,1.335-0.564,0.293-1.102,1.674c-0.48,1.157,0.113,0.116-0.2,2.13
	c0.821,0.045,2.035-0.247,3.111-0.341c1.529-0.137,1.5-0.272,2.038-1.833c-0.847-1.041-1.697-2.083-2.573-3.124
	c-1.104-1.676,0-0.525-0.338-1.925c-0.255-0.498-0.48-0.994-0.709-1.495c-1.469,0.501-1.327,0.362-2.318,1.246H411.528z"/>
</svg>