<?xml version="1.0" encoding="iso-8859-1"?>
<!-- Uploaded to: SVG Repo, www.svgrepo.com, Generator: SVG Repo Mixer Tools -->
<svg height="800px" width="800px" version="1.1" id="Layer_1" xmlns="http://www.w3.org/2000/svg" xmlns:xlink="http://www.w3.org/1999/xlink" 
	 viewBox="0 0 512 512" xml:space="preserve">
<circle style="fill:#273B7A;" cx="256" cy="256" r="256"/>
<path style="fill:#121149;" d="M309.531,506.377c106.443-22.649,188.4-111.442,200.818-221.318L383.874,158.584l-15.956,16.515
	l-48.987-48.988l-143.379,189.65l11.348,11.348l-30.33,26.305L309.531,506.377z"/>
<polygon style="fill:#FFFFFF;" points="318.929,126.112 156.57,126.112 156.57,353.416 288.099,353.416 318.929,322.584 "/>
<polygon style="fill:#FFEDB5;" points="318.929,126.112 227.824,126.112 227.824,353.416 288.099,353.416 318.929,322.584 "/>
<polygon style="fill:#FEE187;" points="383.874,158.584 221.515,158.584 221.515,385.888 353.042,385.888 383.874,355.057 "/>
<polygon style="fill:#FFC61B;" points="302.402,158.584 302.402,385.888 353.042,385.888 383.874,355.056 383.874,158.584 "/>
<polygon style="fill:#EAA22F;" points="353.042,385.888 383.874,355.056 353.042,355.056 "/>
<g>
	<path style="fill:#808183;" d="M345.36,202.559h-85.333c-1.903,0-3.448-1.545-3.448-3.448c0-1.903,1.545-3.448,3.448-3.448h85.333
		c1.903,0,3.448,1.545,3.448,3.448C348.808,201.014,347.264,202.559,345.36,202.559z"/>
	<path style="fill:#808183;" d="M345.36,231.003h-85.333c-1.903,0-3.448-1.545-3.448-3.448s1.545-3.448,3.448-3.448h85.333
		c1.903,0,3.448,1.545,3.448,3.448S347.264,231.003,345.36,231.003z"/>
	<path style="fill:#808183;" d="M345.36,259.448h-85.333c-1.903,0-3.448-1.545-3.448-3.448s1.545-3.448,3.448-3.448h85.333
		c1.903,0,3.448,1.545,3.448,3.448S347.264,259.448,345.36,259.448z"/>
	<path style="fill:#808183;" d="M345.36,287.892h-85.333c-1.903,0-3.448-1.545-3.448-3.448s1.545-3.448,3.448-3.448h85.333
		c1.903,0,3.448,1.545,3.448,3.448S347.264,287.892,345.36,287.892z"/>
</g>
<g>
	<path style="fill:#59595B;" d="M345.36,195.663h-42.958v6.896h42.958c1.903,0,3.448-1.545,3.448-3.448
		C348.808,197.208,347.264,195.663,345.36,195.663z"/>
	<path style="fill:#59595B;" d="M345.36,224.108h-42.958v6.896h42.958c1.903,0,3.448-1.545,3.448-3.448
		S347.264,224.108,345.36,224.108z"/>
	<path style="fill:#59595B;" d="M345.36,252.552h-42.958v6.896h42.958c1.903,0,3.448-1.545,3.448-3.448
		S347.264,252.552,345.36,252.552z"/>
	<path style="fill:#59595B;" d="M345.36,280.997h-42.958v6.896h42.958c1.903,0,3.448-1.545,3.448-3.448
		S347.264,280.997,345.36,280.997z"/>
</g>
</svg>