<?xml version="1.0" encoding="iso-8859-1"?>

<!DOCTYPE svg PUBLIC "-//W3C//DTD SVG 1.1//EN" "http://www.w3.org/Graphics/SVG/1.1/DTD/svg11.dtd">
<!-- Uploaded to: SVG Repo, www.svgrepo.com, Generator: SVG Repo Mixer Tools -->
<svg version="1.1" id="_x36_" xmlns="http://www.w3.org/2000/svg" xmlns:xlink="http://www.w3.org/1999/xlink" 
	 viewBox="0 0 512 512"  xml:space="preserve">
<g>
	<path style="fill:#D4B476;" d="M441.853,393.794H70.147C31.566,393.794,0,362.228,0,323.647V106.969
		c0-38.581,31.566-70.147,70.147-70.147h371.706c38.581,0,70.147,31.566,70.147,70.147v216.678
		C512,362.228,480.434,393.794,441.853,393.794z"/>
	<path style="fill:#D4B476;" d="M199.884,249.574H70.147C31.566,249.574,0,218.008,0,179.427V70.147C0,31.566,31.566,0,70.147,0
		h129.737c38.581,0,70.147,31.566,70.147,70.147v109.28C270.031,218.008,238.465,249.574,199.884,249.574z"/>
	<polygon style="fill:#F0EFEF;" points="485.439,329.388 87.357,347.774 78.653,130.095 476.734,111.709 	"/>
	<defs>
		<filter id="Adobe_OpacityMaskFilter" filterUnits="userSpaceOnUse" x="34.381" y="60.216" width="416.68" height="259.557">
			<feFlood  style="flood-color:white;flood-opacity:1" result="back"/>
			<feBlend  in="SourceGraphic" in2="back" mode="normal"/>
		</filter>
	</defs>
	<mask maskUnits="userSpaceOnUse" x="34.381" y="60.216" width="416.68" height="259.557" id="SVGID_1_">
		<g style="filter:url(#Adobe_OpacityMaskFilter);">
			<defs>
				<filter id="Adobe_OpacityMaskFilter_1_" filterUnits="userSpaceOnUse" x="34.381" y="60.216" width="416.68" height="259.557">
					<feFlood  style="flood-color:white;flood-opacity:1" result="back"/>
					<feBlend  in="SourceGraphic" in2="back" mode="normal"/>
				</filter>
			</defs>
			<mask maskUnits="userSpaceOnUse" x="34.381" y="60.216" width="416.68" height="259.557" id="SVGID_1_">
				<g style="filter:url(#Adobe_OpacityMaskFilter_1_);">
				</g>
			</mask>
			<linearGradient id="SVGID_2_" gradientUnits="userSpaceOnUse" x1="34.3814" y1="189.9944" x2="451.061" y2="189.9944">
				<stop  offset="0.57" style="stop-color:#F6F6F6"/>
				<stop  offset="0.6039" style="stop-color:#F6F6F6"/>
			</linearGradient>
			<polygon style="mask:url(#SVGID_1_);fill:url(#SVGID_2_);" points="451.061,277.073 54.598,319.773 34.381,102.916 
				430.845,60.216 			"/>
		</g>
	</mask>
	<linearGradient id="SVGID_3_" gradientUnits="userSpaceOnUse" x1="34.3814" y1="189.9944" x2="451.061" y2="189.9944">
		<stop  offset="0.57" style="stop-color:#FFFFFF"/>
		<stop  offset="0.6039" style="stop-color:#F0F0F0"/>
	</linearGradient>
	<polygon style="fill:url(#SVGID_3_);" points="451.061,277.073 54.598,319.773 34.381,102.916 430.845,60.216 	"/>
	<path style="fill:#69A092;" d="M441.853,417.32H70.147C31.566,417.32,0,385.754,0,347.173V168.515h512v178.658
		C512,385.754,480.434,417.32,441.853,417.32z"/>
	<path style="fill:#D4B476;" d="M441.853,429.594H70.147C31.566,429.594,0,398.028,0,359.447V189.995h512v169.453
		C512,398.028,480.434,429.594,441.853,429.594z"/>
	<g>
		<g>
			<path style="fill:#CBBC89;" d="M41.051,330.321h28.918h7.581c0.686,0,1.357,0,2.012,0c0.655,0,1.171,0.126,1.545,0.375
				c0.499,0.312,0.795,0.764,0.889,1.357c0.094,0.594,0.141,1.296,0.141,2.106c0,0.312,0.014,0.608,0.047,0.888
				c0.031,0.281-0.016,0.547-0.14,0.796c-0.25,0.998-0.796,1.543-1.638,1.638c-0.843,0.094-1.888,0.14-3.136,0.14h-9.733H53.778
				c-0.998,0-2.058-0.015-3.182-0.047c-1.122-0.03-1.965,0.173-2.526,0.608c-0.563,0.375-0.858,1.03-0.89,1.965
				c-0.032,0.937-0.047,1.873-0.047,2.808v9.265c0,0.5-0.015,1.123-0.046,1.872c-0.033,0.749,0.014,1.373,0.139,1.871v0.748
				c0.125,0.375,0.235,0.735,0.328,1.077c0.093,0.344,0.295,0.608,0.608,0.796c0.562,0.374,1.436,0.547,2.621,0.514
				c1.184-0.03,2.214-0.047,3.088-0.047h16.845c0.561,0,1.171-0.014,1.825-0.046c0.655-0.031,1.31-0.031,1.965,0
				c0.655,0.032,1.248,0.109,1.779,0.234c0.529,0.126,0.889,0.344,1.076,0.655c0.311,0.375,0.467,0.843,0.467,1.404
				c0,0.56,0,1.186,0,1.871c0,0.375,0,0.719,0,1.03c0,0.313-0.062,0.594-0.186,0.842c-0.25,0.625-0.595,0.969-1.03,1.03
				c-0.25,0.125-0.485,0.186-0.702,0.186c-0.219,0-0.483,0.033-0.796,0.094c-0.25,0.063-0.514,0.079-0.796,0.047
				c-0.281-0.03-0.546-0.047-0.794-0.047h-3.277H54.433c-0.999,0-2.168-0.014-3.51-0.047c-1.342-0.03-2.292,0.172-2.853,0.609
				c-0.314,0.25-0.547,0.64-0.702,1.169c-0.156,0.531-0.25,1.14-0.281,1.825c-0.033,0.687-0.033,1.389,0,2.106
				c0.03,0.717,0.046,1.357,0.046,1.918v16.096c0,1.062,0.032,2.217,0.094,3.463c0.062,1.249-0.156,2.185-0.655,2.807
				c-0.186,0.25-0.469,0.391-0.842,0.422c-0.374,0.032-0.749,0.109-1.123,0.234h-1.779c-0.875,0-1.684-0.03-2.433-0.093
				c-0.749-0.062-1.279-0.375-1.59-0.937c-0.25-0.374-0.375-0.888-0.375-1.543c0-0.656,0-1.326,0-2.013v-7.488v-39.119v-10.107
				c0-0.686-0.016-1.45-0.047-2.292c-0.032-0.842,0.107-1.512,0.422-2.012c0.249-0.374,0.715-0.685,1.404-0.935
				c0.124-0.062,0.264-0.077,0.42-0.047C40.785,330.4,40.925,330.383,41.051,330.321z"/>
			<path style="fill:#CBBC89;" d="M96.895,330.508c0.436,0,0.935-0.014,1.496-0.046c0.563-0.032,1.108-0.032,1.639,0
				c0.529,0.032,1.013,0.109,1.45,0.234c0.437,0.125,0.749,0.312,0.937,0.561c0.374,0.438,0.576,1.046,0.608,1.825
				c0.03,0.78,0.047,1.576,0.047,2.386v9.079v36.124v10.949c0,0.811,0,1.669,0,2.574c0,0.905-0.156,1.606-0.468,2.105
				c-0.25,0.314-0.547,0.5-0.889,0.563c-0.344,0.062-0.765,0.156-1.264,0.28h-1.777c-0.874,0-1.684-0.034-2.433-0.094
				c-0.749-0.061-1.28-0.374-1.592-0.935c-0.25-0.374-0.375-0.89-0.375-1.545c0-0.655,0-1.325,0-2.012v-7.487V345.95v-10.107
				c0-0.686-0.015-1.451-0.045-2.292c-0.034-0.843,0.108-1.514,0.42-2.013c0.249-0.436,0.748-0.748,1.497-0.936
				c0.125-0.061,0.25-0.077,0.375-0.047C96.645,330.587,96.769,330.571,96.895,330.508z"/>
			<path style="fill:#CBBC89;" d="M126.093,330.321c0.436,0,0.935-0.015,1.498-0.047c0.561-0.03,1.107-0.03,1.638,0
				c0.529,0.032,1.012,0.109,1.451,0.234c0.436,0.125,0.748,0.313,0.936,0.562c0.374,0.5,0.56,1.155,0.56,1.965
				c0,0.811,0,1.654,0,2.528v9.826v30.042v8.609c0,0.687,0,1.436,0,2.245c0,0.813,0.094,1.468,0.281,1.967
				c0.188,0.436,0.529,0.811,1.03,1.122c0.313,0.125,0.717,0.203,1.217,0.235c0.499,0.032,0.998,0.046,1.498,0.046h4.772h16.845
				h5.24c0.436,0,0.89-0.014,1.359-0.046c0.467-0.032,0.888,0.016,1.263,0.139c0.81,0.25,1.34,0.594,1.591,1.03
				c0.062,0.188,0.124,0.5,0.188,0.937c0.061,0.436,0.107,0.889,0.139,1.357c0.03,0.467,0.015,0.935-0.047,1.402
				c-0.062,0.469-0.126,0.829-0.187,1.077c-0.126,0.437-0.406,0.782-0.843,1.029c-0.313,0.25-0.765,0.375-1.357,0.375
				c-0.593,0-1.169,0-1.731,0h-6.177H133.58h-6.083c-0.874,0-1.623-0.047-2.246-0.139c-0.624-0.094-1.092-0.39-1.404-0.89
				c-0.25-0.374-0.373-0.857-0.373-1.451c0-0.591,0-1.168,0-1.729v-6.74v-25.549v-20.308v-5.802c0-0.561,0.014-1.122,0.045-1.684
				c0.032-0.561,0.141-0.998,0.328-1.31c0.249-0.374,0.717-0.685,1.404-0.935c0.124-0.062,0.265-0.077,0.422-0.047
				C125.827,330.4,125.968,330.383,126.093,330.321z"/>
			<path style="fill:#CBBC89;" d="M187.883,330.321h30.602h8.049c0.686,0,1.372-0.015,2.059-0.047
				c0.685-0.03,1.248,0.109,1.684,0.422c0.188,0.125,0.343,0.281,0.468,0.467c0.124,0.188,0.249,0.375,0.374,0.563
				c0.125,0.436,0.187,1.138,0.187,2.105c0,0.967-0.062,1.701-0.187,2.199c-0.25,0.874-0.78,1.357-1.592,1.451
				c-0.811,0.094-1.777,0.14-2.9,0.14h-9.359h-15.722c-0.998,0-2.169-0.015-3.51-0.047c-1.343-0.03-2.325,0.139-2.949,0.514
				c-0.624,0.374-0.951,1.03-0.982,1.966c-0.032,0.936-0.048,1.904-0.048,2.901v9.546c0,0.688-0.015,1.498-0.045,2.433
				c-0.034,0.937,0.014,1.686,0.139,2.246c0.188,0.749,0.562,1.249,1.123,1.498c0.249,0.125,0.686,0.25,1.31,0.373h0.935
				c0.249,0.063,0.515,0.08,0.796,0.047c0.281-0.03,0.577-0.047,0.89-0.047h3.181h18.343c0.561,0,1.184-0.014,1.872-0.046
				c0.685-0.031,1.387-0.031,2.104,0c0.717,0.032,1.372,0.093,1.967,0.187c0.591,0.094,1.044,0.233,1.357,0.421
				c0.186,0.126,0.341,0.407,0.467,0.842c0.125,0.438,0.218,0.905,0.282,1.404c0.061,0.5,0.077,1.016,0.045,1.545
				c-0.031,0.531-0.109,0.983-0.233,1.357c-0.126,0.561-0.406,0.967-0.842,1.217c-0.127,0.126-0.297,0.203-0.515,0.235
				c-0.22,0.032-0.422,0.079-0.608,0.139h-0.563c-0.312,0.063-0.623,0.079-0.935,0.047c-0.313-0.03-0.624-0.047-0.935-0.047h-3.463
				h-19.747c-0.747,0-1.482-0.014-2.199-0.047c-0.719-0.03-1.39,0-2.012,0.094c-0.624,0.094-1.171,0.267-1.639,0.515
				c-0.467,0.25-0.794,0.687-0.982,1.31c-0.126,0.375-0.173,0.811-0.139,1.31c0.03,0.5,0.045,0.999,0.045,1.498v5.239v8.892
				c0,0.873,0.032,1.669,0.094,2.386c0.062,0.718,0.312,1.233,0.749,1.544c0.435,0.313,0.935,0.483,1.497,0.515
				c0.561,0.032,1.185,0.046,1.871,0.046h5.99h17.314h5.334c0.499,0,0.998-0.014,1.497-0.046c0.498-0.032,0.936,0.016,1.31,0.139
				c0.749,0.25,1.248,0.594,1.498,1.03c0.123,0.188,0.217,0.5,0.281,0.937c0.061,0.436,0.108,0.889,0.14,1.357
				c0.03,0.467,0.015,0.935-0.047,1.402c-0.062,0.469-0.126,0.829-0.187,1.077c-0.25,0.5-0.531,0.842-0.842,1.029
				c-0.375,0.25-0.858,0.375-1.45,0.375c-0.594,0-1.171,0-1.731,0h-6.552h-24.894h-6.551c-0.874,0-1.623-0.047-2.245-0.139
				c-0.624-0.094-1.093-0.39-1.404-0.89c-0.25-0.374-0.374-0.857-0.374-1.451c0-0.591,0-1.168,0-1.729v-6.551v-25.082v-20.964
				v-5.802c0-0.561,0-1.122,0-1.684c0-0.561,0.124-0.998,0.374-1.31c0.249-0.435,0.716-0.749,1.404-0.935
				c0.125-0.062,0.248-0.077,0.375-0.047C187.632,330.4,187.756,330.383,187.883,330.321z"/>
		</g>
		<g>
			<path style="fill:#98806E;" d="M41.051,330.321h28.918h7.581c0.686,0,1.357,0,2.012,0c0.655,0,1.171,0.126,1.545,0.375
				c0.499,0.312,0.795,0.764,0.889,1.357c0.094,0.594,0.141,1.296,0.141,2.106c0,0.312,0.014,0.608,0.047,0.888
				c0.031,0.281-0.016,0.547-0.14,0.796c-0.25,0.998-0.796,1.543-1.638,1.638c-0.843,0.094-1.888,0.14-3.136,0.14h-9.733H53.778
				c-0.998,0-2.058-0.015-3.182-0.047c-1.122-0.03-1.965,0.173-2.526,0.608c-0.563,0.375-0.858,1.03-0.89,1.965
				c-0.032,0.937-0.047,1.873-0.047,2.808v9.265c0,0.5-0.015,1.123-0.046,1.872c-0.033,0.749,0.014,1.373,0.139,1.871v0.748
				c0.125,0.375,0.235,0.735,0.328,1.077c0.093,0.344,0.295,0.608,0.608,0.796c0.562,0.374,1.436,0.547,2.621,0.514
				c1.184-0.03,2.214-0.047,3.088-0.047h16.845c0.561,0,1.171-0.014,1.825-0.046c0.655-0.031,1.31-0.031,1.965,0
				c0.655,0.032,1.248,0.109,1.779,0.234c0.529,0.126,0.889,0.344,1.076,0.655c0.311,0.375,0.467,0.843,0.467,1.404
				c0,0.56,0,1.186,0,1.871c0,0.375,0,0.719,0,1.03c0,0.313-0.062,0.594-0.186,0.842c-0.25,0.625-0.595,0.969-1.03,1.03
				c-0.25,0.125-0.485,0.186-0.702,0.186c-0.219,0-0.483,0.033-0.796,0.094c-0.25,0.063-0.514,0.079-0.796,0.047
				c-0.281-0.03-0.546-0.047-0.794-0.047h-3.277H54.433c-0.999,0-2.168-0.014-3.51-0.047c-1.342-0.03-2.292,0.172-2.853,0.609
				c-0.314,0.25-0.547,0.64-0.702,1.169c-0.156,0.531-0.25,1.14-0.281,1.825c-0.033,0.687-0.033,1.389,0,2.106
				c0.03,0.717,0.046,1.357,0.046,1.918v16.096c0,1.062,0.032,2.217,0.094,3.463c0.062,1.249-0.156,2.185-0.655,2.807
				c-0.186,0.25-0.469,0.391-0.842,0.422c-0.374,0.032-0.749,0.109-1.123,0.234h-1.779c-0.875,0-1.684-0.03-2.433-0.093
				c-0.749-0.062-1.279-0.375-1.59-0.937c-0.25-0.374-0.375-0.888-0.375-1.543c0-0.656,0-1.326,0-2.013v-7.488v-39.119v-10.107
				c0-0.686-0.016-1.45-0.047-2.292c-0.032-0.842,0.107-1.512,0.422-2.012c0.249-0.374,0.715-0.685,1.404-0.935
				c0.124-0.062,0.264-0.077,0.42-0.047C40.785,330.4,40.925,330.383,41.051,330.321z"/>
			<path style="fill:#98806E;" d="M96.895,330.508c0.436,0,0.935-0.014,1.496-0.046c0.563-0.032,1.108-0.032,1.639,0
				c0.529,0.032,1.013,0.109,1.45,0.234c0.437,0.125,0.749,0.312,0.937,0.561c0.374,0.438,0.576,1.046,0.608,1.825
				c0.03,0.78,0.047,1.576,0.047,2.386v9.079v36.124v10.949c0,0.811,0,1.669,0,2.574c0,0.905-0.156,1.606-0.468,2.105
				c-0.25,0.314-0.547,0.5-0.889,0.563c-0.344,0.062-0.765,0.156-1.264,0.28h-1.777c-0.874,0-1.684-0.034-2.433-0.094
				c-0.749-0.061-1.28-0.374-1.592-0.935c-0.25-0.374-0.375-0.89-0.375-1.545c0-0.655,0-1.325,0-2.012v-7.487V345.95v-10.107
				c0-0.686-0.015-1.451-0.045-2.292c-0.034-0.843,0.108-1.514,0.42-2.013c0.249-0.436,0.748-0.748,1.497-0.936
				c0.125-0.061,0.25-0.077,0.375-0.047C96.645,330.587,96.769,330.571,96.895,330.508z"/>
			<path style="fill:#98806E;" d="M126.093,330.321c0.436,0,0.935-0.015,1.498-0.047c0.561-0.03,1.107-0.03,1.638,0
				c0.529,0.032,1.012,0.109,1.451,0.234c0.436,0.125,0.748,0.313,0.936,0.562c0.374,0.5,0.56,1.155,0.56,1.965
				c0,0.811,0,1.654,0,2.528v9.826v30.042v8.609c0,0.687,0,1.436,0,2.245c0,0.813,0.094,1.468,0.281,1.967
				c0.188,0.436,0.529,0.811,1.03,1.122c0.313,0.125,0.717,0.203,1.217,0.235c0.499,0.032,0.998,0.046,1.498,0.046h4.772h16.845
				h5.24c0.436,0,0.89-0.014,1.359-0.046c0.467-0.032,0.888,0.016,1.263,0.139c0.81,0.25,1.34,0.594,1.591,1.03
				c0.062,0.188,0.124,0.5,0.188,0.937c0.061,0.436,0.107,0.889,0.139,1.357c0.03,0.467,0.015,0.935-0.047,1.402
				c-0.062,0.469-0.126,0.829-0.187,1.077c-0.126,0.437-0.406,0.782-0.843,1.029c-0.313,0.25-0.765,0.375-1.357,0.375
				c-0.593,0-1.169,0-1.731,0h-6.177H133.58h-6.083c-0.874,0-1.623-0.047-2.246-0.139c-0.624-0.094-1.092-0.39-1.404-0.89
				c-0.25-0.374-0.373-0.857-0.373-1.451c0-0.591,0-1.168,0-1.729v-6.74v-25.549v-20.308v-5.802c0-0.561,0.014-1.122,0.045-1.684
				c0.032-0.561,0.141-0.998,0.328-1.31c0.249-0.374,0.717-0.685,1.404-0.935c0.124-0.062,0.265-0.077,0.422-0.047
				C125.827,330.4,125.968,330.383,126.093,330.321z"/>
			<path style="fill:#98806E;" d="M187.883,330.321h30.602h8.049c0.686,0,1.372-0.015,2.059-0.047
				c0.685-0.03,1.248,0.109,1.684,0.422c0.188,0.125,0.343,0.281,0.468,0.467c0.124,0.188,0.249,0.375,0.374,0.563
				c0.125,0.436,0.187,1.138,0.187,2.105c0,0.967-0.062,1.701-0.187,2.199c-0.25,0.874-0.78,1.357-1.592,1.451
				c-0.811,0.094-1.777,0.14-2.9,0.14h-9.359h-15.722c-0.998,0-2.169-0.015-3.51-0.047c-1.343-0.03-2.325,0.139-2.949,0.514
				c-0.624,0.374-0.951,1.03-0.982,1.966c-0.032,0.936-0.048,1.904-0.048,2.901v9.546c0,0.688-0.015,1.498-0.045,2.433
				c-0.034,0.937,0.014,1.686,0.139,2.246c0.188,0.749,0.562,1.249,1.123,1.498c0.249,0.125,0.686,0.25,1.31,0.373h0.935
				c0.249,0.063,0.515,0.08,0.796,0.047c0.281-0.03,0.577-0.047,0.89-0.047h3.181h18.343c0.561,0,1.184-0.014,1.872-0.046
				c0.685-0.031,1.387-0.031,2.104,0c0.717,0.032,1.372,0.093,1.967,0.187c0.591,0.094,1.044,0.233,1.357,0.421
				c0.186,0.126,0.341,0.407,0.467,0.842c0.125,0.438,0.218,0.905,0.282,1.404c0.061,0.5,0.077,1.016,0.045,1.545
				c-0.031,0.531-0.109,0.983-0.233,1.357c-0.126,0.561-0.406,0.967-0.842,1.217c-0.127,0.126-0.297,0.203-0.515,0.235
				c-0.22,0.032-0.422,0.079-0.608,0.139h-0.563c-0.312,0.063-0.623,0.079-0.935,0.047c-0.313-0.03-0.624-0.047-0.935-0.047h-3.463
				h-19.747c-0.747,0-1.482-0.014-2.199-0.047c-0.719-0.03-1.39,0-2.012,0.094c-0.624,0.094-1.171,0.267-1.639,0.515
				c-0.467,0.25-0.794,0.687-0.982,1.31c-0.126,0.375-0.173,0.811-0.139,1.31c0.03,0.5,0.045,0.999,0.045,1.498v5.239v8.892
				c0,0.873,0.032,1.669,0.094,2.386c0.062,0.718,0.312,1.233,0.749,1.544c0.435,0.313,0.935,0.483,1.497,0.515
				c0.561,0.032,1.185,0.046,1.871,0.046h5.99h17.314h5.334c0.499,0,0.998-0.014,1.497-0.046c0.498-0.032,0.936,0.016,1.31,0.139
				c0.749,0.25,1.248,0.594,1.498,1.03c0.123,0.188,0.217,0.5,0.281,0.937c0.061,0.436,0.108,0.889,0.14,1.357
				c0.03,0.467,0.015,0.935-0.047,1.402c-0.062,0.469-0.126,0.829-0.187,1.077c-0.25,0.5-0.531,0.842-0.842,1.029
				c-0.375,0.25-0.858,0.375-1.45,0.375c-0.594,0-1.171,0-1.731,0h-6.552h-24.894h-6.551c-0.874,0-1.623-0.047-2.245-0.139
				c-0.624-0.094-1.093-0.39-1.404-0.89c-0.25-0.374-0.374-0.857-0.374-1.451c0-0.591,0-1.168,0-1.729v-6.551v-25.082v-20.964
				v-5.802c0-0.561,0-1.122,0-1.684c0-0.561,0.124-0.998,0.374-1.31c0.249-0.435,0.716-0.749,1.404-0.935
				c0.125-0.062,0.248-0.077,0.375-0.047C187.632,330.4,187.756,330.383,187.883,330.321z"/>
		</g>
	</g>
	<polygon style="fill:#BBAF98;" points="276.167,208.741 0,302.069 0,186.053 512,186.053 512,302.069 	"/>
</g>
</svg>