<?xml version="1.0" encoding="utf-8"?>
<!-- Uploaded to: SVG Repo, www.svgrepo.com, Generator: SVG Repo Mixer Tools -->
<svg width="800px" height="800px" viewBox="0 0 1024 1024" class="icon"  version="1.1" xmlns="http://www.w3.org/2000/svg"><path d="M950.736 924.024c0 50.8-41.192 91.976-91.952 91.976H165.224c-50.792 0-91.968-41.176-91.968-91.976V100C73.264 49.208 114.44 8 165.224 8h693.552c50.76 0 91.952 41.208 91.952 92v824.024z" fill="#F5B146" /><path d="M858.784 8H165.224C114.44 8 73.264 49.208 73.264 100v42.136c0 195.016 160.752 353.064 438.728 353.064 277.896 0 438.744-158.048 438.744-353.064V100c0-50.792-41.2-92-91.952-92z" fill="#0092D2" /><path d="M585.168 647.104c0 40.408-32.704 73.2-73.176 73.2-40.432 0-73.192-32.8-73.192-73.2a73.136 73.136 0 0 1 73.192-73.184 73.088 73.088 0 0 1 73.176 73.184z" fill="#E5226B" /><path d="M858.784 8h-346.88v1008h346.88c50.76 0 91.952-41.176 91.952-91.976V100c0-50.792-41.2-92-91.952-92z" fill="#FFC83E" /><path d="M511.992 573.912h-0.088v146.392h0.088c40.48 0 73.176-32.8 73.176-73.2a73.104 73.104 0 0 0-73.176-73.192z" fill="#C9005B" /><path d="M858.784 8h-346.88v487.192h0.088c277.896 0 438.744-158.048 438.744-353.064V100c0-50.792-41.2-92-91.952-92z" fill="#0AB0EA" /><path d="M585.168 261.864a73.16 73.16 0 0 1-73.176 73.192c-40.432 0-73.192-32.8-73.192-73.192a73.144 73.144 0 0 1 73.192-73.192 73.104 73.104 0 0 1 73.176 73.192z" fill="#FFC83E" /><path d="M511.992 188.672h-0.088v146.392h0.088c40.48 0 73.176-32.8 73.176-73.192a73.104 73.104 0 0 0-73.176-73.2z" fill="#F5B146" /></svg>