<?xml version="1.0" encoding="iso-8859-1"?>
<!-- Uploaded to: SVG Repo, www.svgrepo.com, Generator: SVG Repo Mixer Tools -->
<svg version="1.1" id="Layer_1" xmlns="http://www.w3.org/2000/svg" xmlns:xlink="http://www.w3.org/1999/xlink" 
	 viewBox="0 0 512 512" xml:space="preserve">
<rect x="27.429" y="9.143" style="fill:#FFECB3;" width="274.286" height="438.857"/>
<g>
	<rect x="54.857" y="347.429" style="fill:#01579B;" width="201.143" height="18.286"/>
	<rect x="54.857" y="301.714" style="fill:#01579B;" width="219.429" height="18.286"/>
	<rect x="54.857" y="256" style="fill:#01579B;" width="210.286" height="18.286"/>
	<rect x="54.857" y="210.286" style="fill:#01579B;" width="182.857" height="18.286"/>
	<rect x="54.857" y="164.571" style="fill:#01579B;" width="210.286" height="18.286"/>
	<rect x="54.857" y="118.857" style="fill:#01579B;" width="201.143" height="18.286"/>
	<rect x="54.857" y="73.143" style="fill:#01579B;" width="219.429" height="18.286"/>
</g>
<rect x="118.857" y="45.714" style="fill:#263238;" width="274.286" height="420.571"/>
<rect x="173.714" y="64" style="fill:#FFECB3;" width="274.286" height="438.857"/>
<g>
	<rect x="201.143" y="402.286" style="fill:#F44336;" width="201.143" height="18.286"/>
	<rect x="201.143" y="356.571" style="fill:#F44336;" width="219.429" height="18.286"/>
	<rect x="201.143" y="310.857" style="fill:#F44336;" width="210.286" height="18.286"/>
	<rect x="201.143" y="265.143" style="fill:#F44336;" width="182.857" height="18.286"/>
	<rect x="201.143" y="219.429" style="fill:#F44336;" width="210.286" height="18.286"/>
	<rect x="201.143" y="173.714" style="fill:#F44336;" width="201.143" height="18.286"/>
	<rect x="201.143" y="128" style="fill:#F44336;" width="219.429" height="18.286"/>
</g>
<rect x="228.571" style="fill:#263238;" width="9.143" height="512"/>
<g>
	<polygon style="fill:#FFC107;" points="420.571,45.714 365.714,45.714 393.143,100.571 	"/>
	<polygon style="fill:#FFC107;" points="484.571,164.571 484.571,109.714 429.714,137.143 	"/>
</g>
</svg>