<?xml version="1.0" encoding="iso-8859-1"?>
<!-- Uploaded to: SVG Repo, www.svgrepo.com, Generator: SVG Repo Mixer Tools -->
<svg version="1.1" id="Layer_1" xmlns="http://www.w3.org/2000/svg" xmlns:xlink="http://www.w3.org/1999/xlink" 
	 viewBox="0 0 505 505" xml:space="preserve">
<circle style="fill:#324A5E;" cx="252.5" cy="252.5" r="252.5"/>
<polygon style="fill:#FFD05B;" points="404.3,209 100.7,209 113.7,153.4 391.3,153.4 "/>
<polygon style="fill:#F9B54C;" points="401.1,355.5 103.9,355.5 100.7,209 404.3,209 "/>
<polygon style="fill:#324A5E;" points="328.9,188.9 176.1,188.9 180.6,167.7 324.4,167.7 "/>
<path style="fill:#4CDBC4;" d="M330.6,297.8H174.4c-4.8,0-8.8,3.9-8.8,8.8v48.9h173.7v-48.9C339.3,301.8,335.4,297.8,330.6,297.8z"
	/>
<rect x="178.3" y="315.1" style="fill:#2B3B4E;" width="148.4" height="40.4"/>
<g>
	<rect x="189.9" y="326.7" style="fill:#FFFFFF;" width="125.2" height="103.3"/>
	<path style="fill:#FFFFFF;" d="M278.5,75h-88.6v103.3h125.2v-66.2C304.2,101,289.1,85.5,278.5,75z"/>
</g>
<path style="fill:#CED5E0;" d="M278.5,75v37.1h36.6C304.5,101.6,289.4,86.2,278.5,75z"/>
<g>
	<rect x="206.4" y="350.6" style="fill:#84DBFF;" width="92.3" height="7"/>
	<rect x="206.4" y="374.8" style="fill:#84DBFF;" width="92.3" height="7"/>
	<rect x="206.4" y="399" style="fill:#84DBFF;" width="92.3" height="7"/>
</g>
<circle style="fill:#FF7058;" cx="375.3" cy="233.3" r="7.7"/>
</svg>