<?xml version="1.0" encoding="iso-8859-1"?>
<!-- Uploaded to: SVG Repo, www.svgrepo.com, Generator: SVG Repo Mixer Tools -->
<svg height="800px" width="800px" version="1.1" id="Layer_1" xmlns="http://www.w3.org/2000/svg" xmlns:xlink="http://www.w3.org/1999/xlink" 
	 viewBox="0 0 512 512" xml:space="preserve">
<path style="fill:#9ED368;" d="M512,256.006C512,397.402,397.394,512.004,256.004,512C114.606,512.004,0,397.402,0,256.006
	C-0.007,114.61,114.606,0,256.004,0C397.394,0,512,114.614,512,256.006z"/>
<path style="fill:#8BC052;" d="M511.806,265.52c-31.484-31.206-90.282-89.356-90.765-89.695c-1.253-1.785-3.226-3.025-5.574-3.025
	h-4.365c-0.455-0.636-31.001-31.178-31.66-31.641c-1.254-1.786-3.226-3.026-5.575-3.026H232.16l-19.987-18.905
	c-1.294-1.219-2.993-1.895-4.767-1.895H96.533c-3.831,0-6.933,3.101-6.933,6.933v230.507c0,11.522,4.901,21.699,12.789,28.916
	c0.393,0.404,80.788,80.819,126.905,126.929c8.78,0.91,17.69,1.382,26.709,1.381C394.208,512.004,506.8,402.503,511.806,265.52z"/>
<g>
	<path style="fill:#F4F6F9;" d="M415.467,172.8H380.8v-27.733c0-3.833-3.101-6.933-6.933-6.933H232.16l-19.987-18.905
		c-1.293-1.219-2.993-1.895-4.767-1.895H96.533c-3.833,0-6.933,3.101-6.933,6.933v230.507c0,22.371,18.274,39.893,41.6,39.893
		h241.178c26.65,0,50.022-23.555,50.022-50.416V179.733C422.4,175.901,419.299,172.8,415.467,172.8z M158.933,179.733v175.04
		c0,15.323-11.402,26.027-27.733,26.027c-15.81,0-27.733-11.193-27.733-26.027V131.2H204.65l19.987,18.905
		c1.293,1.219,2.993,1.895,4.767,1.895h137.53v20.8H165.867C162.034,172.8,158.933,175.901,158.933,179.733z M408.533,344.251
		c0,19.127-17.232,36.549-36.156,36.549H163.49c5.898-6.838,9.31-15.817,9.31-26.027V186.667h235.733V344.251z"/>
	<path style="fill:#F4F6F9;" d="M227.163,346.174c0.582,0,1.056-0.02,1.402-0.047h124.502c0.718,0,1.428-0.109,2.112-0.332
		c1.043-0.332,25.621-8.64,25.621-48.195c0-14.828-5.641-29.101-15.092-38.174c-6.317-6.06-13.893-9.554-22.141-10.258
		c-9.492-17.218-29.317-27.733-52.9-27.733c-27.165,0-50.125,23.494-54.729,54.694c-7.902,0.041-15.796,2.769-22.141,7.827
		c-8.43,6.717-13.264,16.745-13.264,27.51c0,12.878,3.433,22.459,10.21,28.492C216.885,345.422,223.825,346.174,227.163,346.174z
		 M222.437,294.797c3.927-3.129,8.796-4.807,13.63-4.807c1.523,0,3.04,0.162,4.523,0.501c1.977,0.474,4.083,0.006,5.714-1.219
		c1.638-1.232,2.641-3.121,2.755-5.166c1.449-26.908,20.11-48.804,41.606-48.804c15.491,0,34.707,6.161,42.169,23.447
		c1.131,2.634,3.785,4.401,6.649,4.178c6.114-0.257,11.931,1.998,16.622,6.507c6.778,6.507,10.827,17.036,10.827,28.166
		c0,25.539-12.038,33.103-15.228,34.66H228.267c-0.19,0-0.508,0.02-0.69,0.034c-0.196,0.034-4.361,0.311-7.753-2.823
		c-3.549-3.264-5.424-9.493-5.424-18.004C214.4,304.851,217.258,298.933,222.437,294.797z"/>
</g>
</svg>